<svg width="247" height="235" viewBox="0 0 247 235" fill="none" xmlns="http://www.w3.org/2000/svg">
<path d="M181.896 105.5C198.975 105.5 215.354 112.285 227.431 124.361C239.507 136.438 246.292 152.817 246.292 169.896C246.292 186.975 239.507 203.354 227.431 215.431C215.354 227.507 198.975 234.292 181.896 234.292C164.817 234.292 148.438 227.507 136.361 215.431C124.285 203.354 117.5 186.975 117.5 169.896C117.5 152.817 124.285 136.438 136.361 124.361C148.438 112.285 164.817 105.5 181.896 105.5ZM181.896 128.917L180.842 128.999C179.672 129.212 178.596 129.777 177.755 130.618C176.914 131.459 176.349 132.536 176.135 133.705L176.042 134.771V164.042H146.747L145.694 164.135C144.524 164.349 143.447 164.914 142.606 165.755C141.766 166.595 141.201 167.672 140.987 168.842L140.893 169.896L140.987 170.95C141.201 172.119 141.766 173.196 142.606 174.037C143.447 174.878 144.524 175.443 145.694 175.656L146.747 175.75H176.042V205.056L176.135 206.11C176.349 207.279 176.914 208.356 177.755 209.197C178.596 210.038 179.672 210.603 180.842 210.816L181.896 210.91L182.95 210.816C184.119 210.603 185.196 210.038 186.037 209.197C186.878 208.356 187.443 207.279 187.656 206.11L187.75 205.056V175.75L217.068 175.762L218.121 175.668C219.291 175.454 220.368 174.89 221.209 174.049C222.05 173.208 222.615 172.131 222.828 170.961L222.922 169.908L222.828 168.854C222.614 167.682 222.047 166.604 221.204 165.763C220.361 164.922 219.282 164.359 218.11 164.147L217.056 164.053H187.75V134.783L187.656 133.729C187.445 132.557 186.881 131.477 186.04 130.634C185.199 129.791 184.121 129.225 182.95 129.01L181.896 128.917ZM143.891 82.0833C148.526 82.0842 153.078 83.3079 157.089 85.6309C161.1 87.9539 164.426 91.2939 166.734 95.3138C154.627 97.7807 143.304 103.157 133.74 110.979C124.176 118.801 116.659 128.832 111.839 140.208C107.019 151.584 105.04 163.963 106.073 176.274C107.107 188.586 111.121 200.461 117.769 210.875L117.535 210.863C110.614 210.865 103.761 209.503 97.3663 206.855C90.9718 204.207 85.1617 200.325 80.2678 195.431C75.3739 190.538 71.4922 184.727 68.8444 178.333C66.1965 171.939 64.8345 165.085 64.836 158.164V108.427C64.836 101.44 67.6115 94.7397 72.5519 89.7992C77.4923 84.8588 84.1929 82.0833 91.1797 82.0833H143.891ZM63.712 82.0833C57.5123 88.5346 53.7924 96.9697 53.2096 105.898L53.1277 108.427V158.176C53.1277 168.093 55.364 177.483 59.3682 185.866C55.4966 186.92 51.4573 187.451 47.2501 187.458C41.0989 187.458 35.0079 186.247 29.325 183.892C23.6422 181.538 18.4788 178.087 14.1298 173.737C9.78075 169.387 6.33127 164.223 3.97836 158.539C1.62546 152.856 0.415212 146.765 0.41675 140.613V108.427C0.415929 101.752 2.94921 95.3252 7.50462 90.446C12.06 85.5667 18.2978 82.5988 24.9574 82.1419L26.7605 82.0833H63.712ZM208.24 82.0833C215.226 82.0833 221.927 84.8588 226.868 89.7992C231.808 94.7397 234.583 101.44 234.583 108.427V114.984C220.427 101.365 201.54 93.7686 181.896 93.7917L179.051 93.8502C177.224 89.4896 174.613 85.5013 171.347 82.0833H208.24ZM193.604 11.8333C201.367 11.8333 208.812 14.9172 214.302 20.4066C219.791 25.8959 222.875 33.3411 222.875 41.1042C222.875 48.8673 219.791 56.3124 214.302 61.8018C208.812 67.2911 201.367 70.375 193.604 70.375C185.841 70.375 178.396 67.2911 172.907 61.8018C167.417 56.3124 164.333 48.8673 164.333 41.1042C164.333 33.3411 167.417 25.8959 172.907 20.4066C178.396 14.9172 185.841 11.8333 193.604 11.8333ZM117.5 0.125C126.816 0.125 135.75 3.82566 142.337 10.4129C148.924 17.0001 152.625 25.9343 152.625 35.25C152.625 44.5657 148.924 53.4999 142.337 60.0871C135.75 66.6743 126.816 70.375 117.5 70.375C108.184 70.375 99.2502 66.6743 92.6629 60.0871C86.0757 53.4999 82.3751 44.5657 82.3751 35.25C82.3751 25.9343 86.0757 17.0001 92.6629 10.4129C99.2502 3.82566 108.184 0.125 117.5 0.125ZM41.3959 11.8333C49.159 11.8333 56.6042 14.9172 62.0935 20.4066C67.5829 25.8959 70.6667 33.3411 70.6667 41.1042C70.6667 48.8673 67.5829 56.3124 62.0935 61.8018C56.6042 67.2911 49.159 70.375 41.3959 70.375C33.6328 70.375 26.1877 67.2911 20.6983 61.8018C15.209 56.3124 12.1251 48.8673 12.1251 41.1042C12.1251 33.3411 15.209 25.8959 20.6983 20.4066C26.1877 14.9172 33.6328 11.8333 41.3959 11.8333Z" fill="#2A767D"/>
</svg>
